HIERARCHY
ROOT root
{
	OFFSET	0	13.1	24.9
	CHANNELS 6  Xposition Yposition Zposition Xrotation Yrotation Zrotation
	JOINT spine_1
	{
		OFFSET	0	9.99999	0
		CHANNELS 3  Xrotation Yrotation Zrotation
		JOINT spine_2
		{
			OFFSET	0	112	-10
			CHANNELS 3  Xrotation Yrotation Zrotation
			JOINT spine_3
			{
				OFFSET	0	206.5	19.3
				CHANNELS 3  Xrotation Yrotation Zrotation
				JOINT spine_4
				{
					OFFSET	0	110.4	14.6
					CHANNELS 3  Xrotation Yrotation Zrotation
					JOINT neck_1
					{
						OFFSET	0	71.8	-50.3
						CHANNELS 3  Xrotation Yrotation Zrotation
						JOINT neck_2
						{
							OFFSET	0	86.2	-25.8
							CHANNELS 3  Xrotation Yrotation Zrotation
							JOINT head_ee
							{
								OFFSET	0	179.8	-8.7
								CHANNELS 3  Xrotation Yrotation Zrotation
								End Site
								{
									OFFSET	1	0	0
								}
							}
						}
					}
					JOINT left_clavicle
					{
						OFFSET	-43.2	22.4	-70.8
						CHANNELS 3  Xrotation Yrotation Zrotation
						JOINT left_shoulder
						{
							OFFSET	-93.9	-5.79999	48.7
							CHANNELS 3  Xrotation Yrotation Zrotation
							JOINT left_elbow
							{
								OFFSET	-291.4	-30.8	15.2
								CHANNELS 3  Xrotation Yrotation Zrotation
								JOINT left_lowarm_twist
								{
									OFFSET	-110.7	-3.89999	13.6
									CHANNELS 3  Xrotation Yrotation Zrotation
									JOINT left_hand
									{
										OFFSET	-110.7	-3.89999	13.6
										CHANNELS 3  Xrotation Yrotation Zrotation
										JOINT left_ee
										{
											OFFSET	-80.8	-5.10001	12.1
											CHANNELS 3  Xrotation Yrotation Zrotation
											End Site
											{
												OFFSET	1	0	0
											}
										}
									}
								}
							}
						}
					}
					JOINT right_clavicle
					{
						OFFSET	43.2	22.4	-70.8
						CHANNELS 3  Xrotation Yrotation Zrotation
						JOINT right_shoulder
						{
							OFFSET	93.9	-5.79999	48.7
							CHANNELS 3  Xrotation Yrotation Zrotation
							JOINT right_elbow
							{
								OFFSET	291.4	-30.8	15.2
								CHANNELS 3  Xrotation Yrotation Zrotation
								JOINT right_lowarm_twist
								{
									OFFSET	110.7	-3.89999	13.6
									CHANNELS 3  Xrotation Yrotation Zrotation
									JOINT right_hand
									{
										OFFSET	110.7	-3.89999	13.6
										CHANNELS 3  Xrotation Yrotation Zrotation
										JOINT right_ee
										{
											OFFSET	80.8	-5.10001	12.1
											CHANNELS 3  Xrotation Yrotation Zrotation
											End Site
											{
												OFFSET	1	0	0
											}
										}
									}
								}
							}
						}
					}
				}
			}
		}
	}
	JOINT left_hip
	{
		OFFSET	-82.8	-127.5	0.300001
		CHANNELS 3  Xrotation Yrotation Zrotation
		JOINT left_knee
		{
			OFFSET	-28.2	-396.7	2.2
			CHANNELS 3  Xrotation Yrotation Zrotation
			JOINT left_ankle
			{
				OFFSET	-11.7	-411.3	35.4
				CHANNELS 3  Xrotation Yrotation Zrotation
				JOINT left_toes
				{
					OFFSET	0	-60	-88.6
					CHANNELS 3  Xrotation Yrotation Zrotation
					JOINT left_foot_ee
					{
						OFFSET	-22.5	-16.5	-42.2
						CHANNELS 3  Xrotation Yrotation Zrotation
						End Site
						{
							OFFSET	1	0	0
						}
					}
				}
			}
		}
	}
	JOINT right_hip
	{
		OFFSET	82.8	-127.5	0.300001
		CHANNELS 3  Xrotation Yrotation Zrotation
		JOINT right_knee
		{
			OFFSET	28.2	-396.7	2.2
			CHANNELS 3  Xrotation Yrotation Zrotation
			JOINT right_ankle
			{
				OFFSET	11.7	-411.3	35.4
				CHANNELS 3  Xrotation Yrotation Zrotation
				JOINT right_toes
				{
					OFFSET	0	-60	-88.6
					CHANNELS 3  Xrotation Yrotation Zrotation
					JOINT right_foot_ee
					{
						OFFSET	22.5	-16.5	-42.2
						CHANNELS 3  Xrotation Yrotation Zrotation
						End Site
						{
							OFFSET	1	0	0
						}
					}
				}
			}
		}
	}
}
MOTION
Frames: 12
Frame Time: 0.02
702.921 653.623 -1670.56 -20.7824 75.621 27.1531 2.8964 -0.605555 -2.8418 2.90079 -0.423573 -2.87453 2.92092 0.0419076 -2.90524 2.90938 -0.417254 -2.87546 3.43105 -3.79111 4.8644 3.66788 -10.7503 5.22572 -0.0 0.0 -0.0 12.4284 -27.0766 24.2335 8.37207 27.7423 58.701 0.290985 -8.20261 0.0208648 12.659 0.271227 -1.59105 6.86314 -18.0278 41.1033 -0.0 0.0 -0.0 1.48082 -15.1355 -4.147 -22.3084 5.60218 -68.0254 0.468788 13.0739 -0.0537183 0.0268548 -0.000945383 0.00329938 -1.7171 1.92914 12.4311 0.0 0.0 0.0 9.2955 19.7072 -22.6603 -19.1374 0.304905 2.90734 28.832 -9.79028 -3.91365 -5.04886 0.0 0.0 -0.0 0.0 -0.0 22.7098 -6.71012 1.02085 4.41965 0.207068 0.646319 -8.12395 -7.30332 -1.20822 -5.3281 0.0 0.0 0.0 0.0 0.0 
693.608 653.07 -1683.2 -23.3799 76.4352 29.3722 3.17981 -0.653893 -2.73327 3.18384 -0.478712 -2.7693 3.20564 -0.0434109 -2.81 3.19495 -0.486482 -2.76795 2.27488 -3.59225 5.49535 2.52293 -10.9323 5.81688 -0.0 0.0 -0.0 11.8928 -27.164 23.0007 6.44964 27.3895 60.5566 0.22607 -6.39 0.0126196 11.442 0.260512 -1.43598 6.67516 -20.5181 37.6804 -0.0 0.0 -0.0 1.39311 -15.1069 -4.00444 -22.3082 5.67532 -68.1366 0.470583 13.1222 -0.054125 0.52958 -0.0183582 0.0651436 -1.75696 1.4564 12.4885 0.0 0.0 0.0 8.91111 18.0729 -22.8842 -19.8387 0.297523 3.01468 31.0348 -9.50193 -4.14811 -4.25191 0.0 0.0 -0.0 0.0 -0.0 23.5931 -5.53129 2.18039 1.9798 0.0865755 0.291446 -5.89487 -7.14554 -0.873535 -3.70367 0.0 0.0 0.0 0.0 0.0 
683.846 659.803 -1697.27 -27.108 76.4297 32.3196 3.46144 -0.642446 -2.7169 3.46542 -0.468328 -2.75224 3.48625 -0.0494701 -2.79133 3.47572 -0.48952 -2.74855 -1.55726 -4.17748 6.6911 -1.28687 -12.8563 6.58465 -0.0 0.0 -0.0 12.6382 -27.135 24.707 3.96566 27.6804 60.0211 0.234966 -6.63925 0.0136289 11.0924 0.256825 -1.39147 6.09799 -21.4127 32.5208 -0.0 0.0 -0.0 1.53099 -14.8988 -4.20932 -21.6614 6.18749 -67.3488 0.522003 14.4984 -0.0664005 2.27022 -0.0744381 0.280388 -1.66151 2.06388 12.1108 0.0 0.0 0.0 10.376 16.4723 -22.5198 -22.0102 0.266342 3.3464 33.2963 -8.72505 -4.36816 -2.85422 0.0 0.0 -0.0 0.0 -0.0 23.1517 -7.03452 1.87034 3.28652 0.149224 0.482132 -5.682 -8.55707 -0.841399 -3.97982 0.0 0.0 0.0 0.0 0.0 
677.385 664.411 -1712.79 -29.5506 77.4686 34.3843 3.56746 -0.638216 -2.58768 3.57106 -0.472319 -2.62302 3.59107 -0.0777178 -2.66404 3.58151 -0.497332 -2.61839 -3.90493 -5.70442 7.49107 -3.60405 -16.1517 6.87478 -0.0 0.0 -0.0 12.6614 -26.931 24.7855 2.89972 25.3868 59.8866 0.20145 -5.69897 0.010027 9.57179 0.237632 -1.1982 5.68813 -19.9051 30.4212 -0.0 0.0 -0.0 1.50116 -13.5583 -4.05743 -21.3014 7.43015 -67.9332 0.546676 15.1528 -0.0727137 3.64363 -0.114052 0.451346 -1.45676 2.78541 11.0334 0.0 0.0 0.0 10.6735 14.2031 -22.539 -22.3158 0.260944 3.39299 35.0423 -9.56995 -4.5596 -1.91507 0.0 0.0 -0.0 0.0 -0.0 22.726 -5.58189 1.50852 1.08879 0.0463639 0.160644 -1.02802 -4.55226 -0.151153 1.22099 -0.0 -0.0 0.0 0.0 0.0 
666.435 664.594 -1727.2 -29.9093 77.5843 34.2737 3.78563 -0.618915 -2.4454 3.78883 -0.462102 -2.4798 3.80719 -0.0983801 -2.52054 3.79867 -0.495095 -2.47343 -4.96384 -6.12259 9.93632 -4.52682 -18.7038 9.17304 -0.0 0.0 -0.0 12.2622 -27.5093 23.8001 2.16807 27.3339 60.7885 0.199103 -5.63299 0.0097952 10.2863 0.24729 -1.28895 5.38117 -21.1593 27.3532 -0.0 0.0 -0.0 2.08509 -14.3266 -5.06403 -22.2006 8.40047 -66.3567 0.552121 15.2967 -0.0741436 4.39527 -0.133992 0.54529 -1.16786 2.88219 9.10465 0.0 0.0 0.0 10.8442 13.5423 -22.966 -23.8185 0.230796 3.6216 35.7429 -8.49093 -4.60531 0.189746 -0.0 -0.0 -0.0 0.0 -0.0 21.7769 -6.5661 1.39413 2.0235 0.0886004 0.297846 -3.74911 -7.93506 -0.553187 -1.2986 0.0 0.0 0.0 0.0 0.0 
654.797 667.108 -1741.01 -31.1496 76.6998 35.1176 4.38281 -0.562639 -2.27969 4.3856 -0.416477 -2.31085 4.40047 -0.101956 -2.34584 4.3931 -0.471059 -2.30034 -6.37015 -6.71704 9.05284 -6.05171 -19.0394 7.87972 -0.0 0.0 -0.0 12.136 -28.0447 23.4449 -0.278091 26.7084 62.0195 0.20037 -5.6686 0.00991995 9.84917 0.241516 -1.23342 4.92418 -21.0594 24.123 -0.0 0.0 -0.0 1.93444 -12.3902 -4.68797 -22.7608 10.3078 -67.612 0.574143 15.8766 -0.080061 5.62403 -0.163929 0.699396 -0.96512 2.62734 7.61539 0.0 0.0 0.0 10.8375 13.0601 -22.8984 -23.4426 0.2389 3.56449 36.1622 -8.93084 -4.65434 1.98092 -0.0 -0.0 -0.0 0.0 -0.0 21.4463 -6.17274 1.0405 2.10605 0.0924384 0.30993 -0.39608 -3.93543 -0.0581962 3.03703 -0.0 -0.0 0.0 0.0 0.0 
641.667 673.577 -1758.07 -30.1299 75.4499 33.6202 5.02637 -0.429808 -2.05414 5.02866 -0.298256 -2.07731 5.03746 -0.0394698 -2.09823 5.03151 -0.370279 -2.06569 -7.51955 -6.62973 9.82377 -7.20876 -19.3437 8.45899 -0.0 0.0 -0.0 12.4088 -27.2794 24.1635 -0.360586 28.5752 60.5197 0.195205 -5.5234 0.00941633 10.6941 0.252294 -1.3408 4.15887 -19.8397 19.4319 -0.0 0.0 -0.0 2.21602 -13.3702 -5.21885 -22.5465 12.8612 -65.8627 0.693658 18.9637 -0.115854 4.74717 -0.142904 0.589359 -0.507394 4.93478 5.51837 0.0 0.0 0.0 10.9063 7.34691 -21.7252 -26.1604 0.17188 3.97614 39.4572 -8.87189 -4.95449 3.11368 -0.0 -0.0 -0.0 0.0 -0.0 20.3803 -4.98747 -0.191421 3.21684 0.145774 0.472 -1.48305 -5.19526 -0.218131 1.06944 -0.0 -0.0 0.0 0.0 0.0 
631.717 678.334 -1773.98 -31.6303 76.1763 35.1818 5.1964 -0.532709 -1.88876 5.19829 -0.411466 -1.91882 5.21029 -0.17735 -1.9544 5.20529 -0.483729 -1.90189 -7.40487 -7.12433 10.6861 -7.02749 -20.8866 9.25995 -0.0 0.0 -0.0 12.205 -27.306 23.6947 1.15328 29.9762 59.8114 0.201781 -5.70825 0.0100598 11.1475 0.257425 -1.39849 3.88947 -21.1021 16.8891 -0.0 0.0 -0.0 2.33197 -13.478 -5.41611 -23.0826 14.0929 -65.0704 0.7543 20.4886 -0.136324 6.32964 -0.179623 0.788164 -0.16942 4.80357 3.17797 0.0 0.0 0.0 12.3517 5.73494 -22.1029 -28.4687 0.0996664 4.32301 39.4236 -6.39502 -4.90405 4.27357 -0.0 -0.0 -0.0 0.0 -0.0 19.4926 -6.78261 -1.08163 2.04722 0.0897013 0.301319 3.23885 -0.210579 0.474772 3.81815 -0.0 -0.0 0.0 0.0 0.0 
622.978 681.745 -1778.03 -32.7295 75.4316 35.5483 5.18921 -0.568307 -1.76561 5.19083 -0.454823 -1.79818 5.20358 -0.234726 -1.83988 5.19923 -0.52231 -1.77976 -7.02925 -6.70678 9.90627 -6.68777 -19.5882 8.62517 -0.0 0.0 -0.0 11.6469 -27.2061 22.4371 0.594812 30.8251 61.1523 0.23648 -6.68162 0.0138043 11.5735 0.261829 -1.45272 3.71293 -20.4392 16.0363 -0.0 0.0 -0.0 2.27377 -13.0644 -5.29564 -22.8563 15.6715 -64.4482 0.821226 22.1369 -0.160651 7.11938 -0.195891 0.887735 0.0162402 4.57877 1.83016 0.0 0.0 0.0 11.5435 2.44177 -20.2609 -29.5879 0.0596304 4.49011 39.8626 -5.75816 -4.93156 6.89767 -0.0 -0.0 -0.0 0.0 -0.0 19.0901 -6.00015 -0.777138 3.64292 0.167067 0.533894 -0.1624 -4.01828 -0.0238455 3.05556 -0.0 -0.0 0.0 0.0 0.0 
615.888 686.74 -1786.77 -36.169 76.893 39.1201 5.2092 -0.527717 -1.77131 5.21085 -0.413953 -1.80129 5.22231 -0.194359 -1.83798 5.21792 -0.482149 -1.78425 -7.05058 -6.95564 10.1454 -6.69204 -20.2189 8.81614 -0.0 0.0 -0.0 12.874 -26.5457 25.3212 0.449384 29.9706 59.4007 0.244445 -6.90454 0.0147465 11.4604 0.260699 -1.43832 3.52699 -20.8182 14.5724 -0.0 0.0 -0.0 2.64909 -13.0153 -5.91463 -21.6536 16.54 -63.2169 0.930718 24.7517 -0.204225 8.06086 -0.213487 1.00671 0.241256 5.85318 0.854268 0.0 0.0 0.0 13.769 3.03337 -20.6938 -31.8023 -0.0291758 4.81831 39.498 -7.34272 -4.92754 6.85309 -0.0 -0.0 -0.0 0.0 -0.0 17.431 -6.92323 -1.16134 5.66091 0.274154 0.82485 -2.74225 -4.12096 -0.404962 1.32918 -0.0 -0.0 0.0 0.0 0.0 
611.49 686.912 -1795.3 -34.9145 76.2136 37.2329 5.07473 -0.209096 -1.65922 5.07626 -0.103106 -1.66916 5.07792 0.102691 -1.66919 5.07407 -0.162177 -1.66446 -6.57974 -6.59421 9.68743 -6.23127 -19.2591 8.51271 -0.0 0.0 -0.0 12.712 -26.0423 25.008 -0.364892 30.446 59.5003 0.278412 -7.8527 0.0191089 11.5392 0.261489 -1.44835 3.41728 -22.0564 13.1867 -0.0 0.0 -0.0 2.99119 -12.4667 -6.45856 -21.3978 18.3628 -62.2239 1.0327 27.0922 -0.248813 7.03597 -0.194238 0.877208 0.119787 5.71552 1.61522 0.0 0.0 0.0 15.0879 -10.1156 -16.6345 -41.7372 -0.580972 6.23974 39.5462 1.90256 -4.8254 7.29622 -0.0 -0.0 -0.0 0.0 -0.0 17.5072 -6.69708 -0.809839 4.80762 0.227619 0.702273 -1.93101 -0.348041 -0.286721 1.00722 -0.0 -0.0 0.0 0.0 0.0 
608.529 687.815 -1796.43 -37.8524 77.4528 40.7486 4.94915 -0.325334 -1.94162 4.95122 -0.201148 -1.95838 4.95634 0.0450532 -1.96816 4.95103 -0.266286 -1.95059 -6.75175 -7.05457 7.96178 -6.5131 -18.8475 6.62684 -0.0 0.0 -0.0 12.4697 -23.8137 24.6903 -0.936503 27.8642 60.8514 0.315662 -8.88755 0.0245316 10.156 0.245613 -1.27239 3.60544 -22.2456 14.3512 -0.0 0.0 -0.0 3.18789 -10.4128 -6.70323 -20.4364 19.5614 -60.1653 1.12378 29.1032 -0.291717 8.27846 -0.217276 1.03425 -0.151047 6.20877 3.65432 0.0 0.0 0.0 17.0599 -19.9694 -13.0473 -47.2329 -0.98981 6.97947 38.4791 10.1951 -4.7419 8.86532 -0.0 -0.0 -0.0 0.0 -0.0 16.1629 -9.01043 -1.60457 5.99556 0.292903 0.872736 -1.0277 -1.37046 -0.151914 4.2412 -0.0 -0.0 0.0 0.0 0.0 
